<svg width="73" height="90" viewBox="0 0 73 90" fill="none" xmlns="http://www.w3.org/2000/svg">
<path d="M70.2847 27.1843C72.6382 31.4161 72.6378 36.5637 70.2837 40.7952L61.6149 56.3768L49.1601 78.7795L46.2195 84.049C42.0588 91.5048 31.3299 91.4993 27.1768 84.0392C25.3425 80.7441 25.3416 76.7349 27.1746 73.4391L36.6814 56.345L45.3556 40.7791C47.7159 36.5436 47.7165 31.3884 45.3573 27.1523L39.246 16.1793C35.2057 8.92478 40.4507 0 48.7544 0C52.6998 0 56.3362 2.13511 58.2586 5.58037L61.6149 11.5953L70.2847 27.1843ZM20.4237 7.60195C18.5014 4.14883 14.8594 2.00796 10.9073 2.00796C2.59799 2.00796 -2.65087 10.9385 1.39164 18.1982L14.2469 41.2843C18.3976 48.7381 29.1188 48.7406 33.2729 41.2887C35.1092 37.9946 35.1104 33.9848 33.276 30.6896L20.4237 7.60195Z" fill="white"/>
</svg>
