<svg width="127" height="157" viewBox="0 0 127 157" fill="none" xmlns="http://www.w3.org/2000/svg">
<path fill-rule="evenodd" clip-rule="evenodd" d="M2.5 63.1667C2.5 34.5699 2.5 20.2677 11.3877 11.3877C20.2753 2.50758 34.5699 2.5 63.1667 2.5C91.7634 2.5 106.066 2.5 114.946 11.3877C123.826 20.2753 123.833 34.5699 123.833 63.1667V93.5C123.833 122.097 123.833 136.399 114.946 145.279C106.058 154.159 91.7634 154.167 63.1667 154.167C34.5699 154.167 20.2677 154.167 11.3877 145.279C2.50758 136.391 2.5 122.097 2.5 93.5V63.1667ZM42.3125 44.2083C42.3125 38.6775 44.5096 33.3731 48.4205 29.4622C52.3315 25.5513 57.6358 23.3542 63.1667 23.3542C68.6975 23.3542 74.0019 25.5513 77.9128 29.4622C81.8237 33.3731 84.0208 38.6775 84.0208 44.2083C84.0208 49.7392 81.8237 55.0435 77.9128 58.9545C74.0019 62.8654 68.6975 65.0625 63.1667 65.0625C57.6358 65.0625 52.3315 62.8654 48.4205 58.9545C44.5096 55.0435 42.3125 49.7392 42.3125 44.2083ZM63.1667 76.4375C59.4322 76.4375 55.7343 77.1731 52.2841 78.6022C48.8339 80.0313 45.699 82.126 43.0583 84.7667C40.4177 87.4073 38.323 90.5422 36.8938 93.9924C35.4647 97.4426 34.7292 101.141 34.7292 104.875C34.7292 108.609 35.4647 112.307 36.8938 115.758C38.323 119.208 40.4177 122.343 43.0583 124.983C45.699 127.624 48.8339 129.719 52.2841 131.148C55.7343 132.577 59.4322 133.313 63.1667 133.313C70.7088 133.313 77.942 130.316 83.275 124.983C88.6081 119.65 91.6042 112.417 91.6042 104.875C91.6042 97.3329 88.6081 90.0997 83.275 84.7667C77.942 79.4336 70.7088 76.4375 63.1667 76.4375Z" fill="#17243F" stroke="#17243F" stroke-width="5"/>
</svg>
